<?xml version="1.0" encoding="utf-8"?>
<!-- Svg Vector Icons : http://www.onlinewebfonts.com/icon -->
<!DOCTYPE svg PUBLIC "-//W3C//DTD SVG 1.1//EN" "http://www.w3.org/Graphics/SVG/1.1/DTD/svg11.dtd">
<svg version="1.1" xmlns="http://www.w3.org/2000/svg" xmlns:xlink="http://www.w3.org/1999/xlink" x="0px" y="0px" viewBox="0 0 1000 1000" enable-background="new 0 0 1000 1000" xml:space="preserve">
<metadata> Svg Vector Icons : http://www.onlinewebfonts.com/icon </metadata>
<g><g transform="translate(0.000000,472.000000) scale(0.100000,-0.100000)"><path d="M5608.5,4608c-339.4-35.4-112.4,170.7-2898.4-2611.1C1331.6,620.5,186.4-537.2,165.6-578.8c-87.5-166.6-87.5-412.3,0-578.9c47.9-91.6,3879.2-3920.8,3966.6-3964.5c162.4-81.2,410.2-77.1,570.5,6.2C4806.9-5061.9,9750.1-110.3,9804.2-6.2c93.7,181.2,95.8,210.3,95.8,2167.6v1853.2l-47.9,118.7c-83.3,208.2-229,354-437.3,437.3l-118.7,47.9l-1759.5,2.1C6568.4,4622.6,5700.1,4616.3,5608.5,4608z M9319.1,4137.4c31.2-22.9,77-68.7,100-99.9c43.7-56.2,43.7-77,50-1851.1c4.2-1230.6,0-1828.2-16.7-1899c-20.8-104.1-54.1-137.4-2494.5-2577.8C4621.6-4626.7,4482-4762,4413.3-4762c-68.7,0-181.2,108.3-1982.3,1911.5C627.9-1049.4,519.6-937,519.6-868.3S654.9-660,2991.2,1676.2c2213.4,2213.4,2482,2475.8,2557,2492.4c47.9,10.4,864.1,16.7,1899,16.7C9244.1,4181.1,9262.8,4181.1,9319.1,4137.4z"/><path d="M7711.6,3506.5c-597.6-218.6-772.5-962-329-1405.5c545.5-547.6,1474.2-135.3,1443,641.3c-14.6,320.7-193.7,585.1-493.5,726.7c-120.8,58.3-164.5,66.6-326.9,70.8C7865.7,3544,7790.7,3535.6,7711.6,3506.5z M8107.2,3104.6c154.1-47.9,304-245.7,304-404c0-149.9-114.5-320.7-260.3-385.2c-120.8-56.2-235.3-50-366.5,18.7c-195.7,102-279,339.4-187.4,535.1c50,106.2,141.6,193.6,243.6,229C7942.7,3135.8,7998.9,3135.8,8107.2,3104.6z"/></g></g>
</svg>